<?xml version="1.0" encoding="UTF-8"?>
<!DOCTYPE svg PUBLIC "-//W3C//DTD SVG 1.1//EN" "http://www.w3.org/Graphics/SVG/1.1/DTD/svg11.dtd">
<svg xmlns="http://www.w3.org/2000/svg" version="1.1" width="313px" height="200px" style="shape-rendering:geometricPrecision; text-rendering:geometricPrecision; image-rendering:optimizeQuality; fill-rule:evenodd; clip-rule:evenodd" xmlns:xlink="http://www.w3.org/1999/xlink">
<g><path style="opacity:1" fill="#efece5" d="M -0.5,-0.5 C 68.5,-0.5 137.5,-0.5 206.5,-0.5C 207.15,1.43525 207.483,3.43525 207.5,5.5C 212.907,6.97006 218.407,8.3034 224,9.5C 227.482,9.77411 229.982,8.44077 231.5,5.5C 231,5.16667 230.5,4.83333 230,4.5C 227.842,5.45101 225.675,5.95101 223.5,6C 225.421,4.7592 225.754,3.2592 224.5,1.5C 223.614,2.32496 223.281,3.32496 223.5,4.5C 218.686,5.4271 215.352,3.76044 213.5,-0.5C 218.167,-0.5 222.833,-0.5 227.5,-0.5C 227.5,0.5 227.5,1.5 227.5,2.5C 228.873,2.34332 230.207,2.50999 231.5,3C 234.122,5.99233 236.789,8.99233 239.5,12C 240.448,12.4828 241.448,12.6495 242.5,12.5C 242.5,13.5 242.5,14.5 242.5,15.5C 244.604,15.7989 246.604,15.4656 248.5,14.5C 249.09,13.2011 250.09,12.3678 251.5,12C 252.714,9.32589 254.047,6.82589 255.5,4.5C 258.5,4.16667 260.167,2.5 260.5,-0.5C 269.167,-0.5 277.833,-0.5 286.5,-0.5C 286.167,0.166667 285.833,0.833333 285.5,1.5C 281.795,5.86077 277.461,9.52744 272.5,12.5C 271.784,14.482 270.617,16.1487 269,17.5C 268.667,17.1667 268.333,16.8333 268,16.5C 267.727,18.1012 267.227,19.6012 266.5,21C 265.551,21.6172 264.718,21.4506 264,20.5C 263.51,21.7932 263.343,23.1266 263.5,24.5C 271.5,24.5 279.5,24.5 287.5,24.5C 287.5,32.1667 287.5,39.8333 287.5,47.5C 282.439,44.2759 278.106,40.1092 274.5,35C 273.552,34.5172 272.552,34.3505 271.5,34.5C 271.715,32.8212 271.048,31.8212 269.5,31.5C 269.67,30.1779 269.337,29.0113 268.5,28C 266.564,27.187 264.564,26.687 262.5,26.5C 262.5,34.1667 262.5,41.8333 262.5,49.5C 270.833,49.5 279.167,49.5 287.5,49.5C 287.5,49.8333 287.5,50.1667 287.5,50.5C 287.334,58.1739 287.5,65.8406 288,73.5C 295.42,66.578 302.587,59.578 309.5,52.5C 310.167,51.1667 311.167,50.1667 312.5,49.5C 312.5,56.5 312.5,63.5 312.5,70.5C 309.458,71.6417 307.125,73.6417 305.5,76.5C 304.914,76.2907 304.414,75.9574 304,75.5C 303.156,79.0133 301.156,81.6799 298,83.5C 296.521,88.2067 298.021,91.54 302.5,93.5C 303.308,95.4233 303.808,97.4233 304,99.5C 304.388,98.572 305.055,97.9054 306,97.5C 309.112,99.1066 311.279,101.44 312.5,104.5C 312.5,105.5 312.5,106.5 312.5,107.5C 309.369,110.129 306.369,112.962 303.5,116C 306.482,116.498 309.482,116.665 312.5,116.5C 312.5,144.167 312.5,171.833 312.5,199.5C 267.833,199.5 223.167,199.5 178.5,199.5C 171.521,191.854 164.188,184.521 156.5,177.5C 153.041,180.748 149.374,183.748 145.5,186.5C 146.833,187.833 146.833,189.167 145.5,190.5C 146.868,191.594 148.035,191.26 149,189.5C 149.464,190.094 149.631,190.761 149.5,191.5C 148.618,194.385 147.284,197.052 145.5,199.5C 144.833,199.5 144.167,199.5 143.5,199.5C 143.5,198.5 143.5,197.5 143.5,196.5C 141.446,196.635 139.779,195.968 138.5,194.5C 137.833,194.5 137.167,194.5 136.5,194.5C 138.482,191.081 139.482,187.581 139.5,184C 141.991,183.374 141.991,182.541 139.5,181.5C 140.689,180.571 142.022,180.238 143.5,180.5C 143.5,179.5 143.5,178.5 143.5,177.5C 138.532,177.134 138.866,176.634 144.5,176C 143.736,173.931 143.236,171.764 143,169.5C 141.586,170.413 140.086,170.413 138.5,169.5C 137.833,169.167 137.167,168.833 136.5,168.5C 134.761,165.757 132.427,163.757 129.5,162.5C 128.883,162.611 128.383,162.944 128,163.5C 122.803,161.58 117.303,160.913 111.5,161.5C 111.66,159.801 111.494,158.134 111,156.5C 110.075,157.047 109.242,157.713 108.5,158.5C 110.173,160.523 110.84,162.856 110.5,165.5C 108.833,165.5 107.167,165.5 105.5,165.5C 105.5,166.5 105.5,167.5 105.5,168.5C 112.702,166.757 120.035,166.091 127.5,166.5C 127.5,167.5 127.5,168.5 127.5,169.5C 122.999,170.691 118.499,170.691 114,169.5C 112.553,169.945 111.22,170.612 110,171.5C 108.56,170.852 107.06,170.519 105.5,170.5C 105.5,171.5 105.5,172.5 105.5,173.5C 111.816,172.642 118.15,172.476 124.5,173C 129.797,174.134 129.797,174.968 124.5,175.5C 124.5,176.5 124.5,177.5 124.5,178.5C 123.167,178.5 121.833,178.5 120.5,178.5C 121.29,177.206 122.29,176.039 123.5,175C 114.99,174.829 106.657,174.329 98.5,173.5C 99.1667,172.5 99.8333,171.5 100.5,170.5C 100.811,171.478 101.478,172.145 102.5,172.5C 103.498,163.525 103.832,154.525 103.5,145.5C 94.4754,145.168 85.4754,145.502 76.5,146.5C 77.1925,147.518 77.8592,148.518 78.5,149.5C 77.1667,149.5 76.5,150.167 76.5,151.5C 76.1667,151.5 75.8333,151.5 75.5,151.5C 75.1667,150.5 74.5,149.833 73.5,149.5C 72.8333,148.167 71.8333,147.167 70.5,146.5C 68.5,143.833 66.1667,141.5 63.5,139.5C 60.1667,135.5 56.5,131.833 52.5,128.5C 52.5,127.833 52.1667,127.5 51.5,127.5C 50.8333,125.5 49.5,124.167 47.5,123.5C 44.9214,119.25 41.5881,115.583 37.5,112.5C 33.8066,115.863 30.1399,119.196 26.5,122.5C 25.8333,121.833 25.1667,121.167 24.5,120.5C 24.5,118.833 24.5,117.167 24.5,115.5C 24.5,114.833 24.5,114.167 24.5,113.5C 24.5,109.833 24.5,106.167 24.5,102.5C 23.5,102.5 22.5,102.5 21.5,102.5C 24.0025,100.61 24.0025,98.6104 21.5,96.5C 21.8039,95.8501 22.1373,95.1835 22.5,94.5C 21.5328,92.3703 20.3662,90.3703 19,88.5C 18.3162,87.2161 18.4829,86.0495 19.5,85C 17.8446,83.5557 17.178,81.7224 17.5,79.5C 18.1667,80.1667 18.8333,80.8333 19.5,81.5C 20.7927,83.2959 22.2927,84.9625 24,86.5C 24.4996,79.5079 24.6663,72.5079 24.5,65.5C 17.8002,65.17 11.1335,65.5033 4.5,66.5C 6.8544,69.5211 9.52107,72.1877 12.5,74.5C 13.3065,75.7281 14.3065,76.7281 15.5,77.5C 12.7224,77.9783 10.7224,76.9783 9.5,74.5C 8.52242,74.9767 7.68909,75.6433 7,76.5C 4.6194,75.565 2.1194,75.2317 -0.5,75.5C -0.5,64.1667 -0.5,52.8333 -0.5,41.5C 2.23422,43.5498 5.23422,45.2164 8.5,46.5C 10.0193,51.8336 11.0193,57.5002 11.5,63.5C 6.87963,64.6939 10.213,64.8605 21.5,64C 22.6841,62.8197 23.3507,61.3197 23.5,59.5C 23.0738,54.4199 22.2405,49.4199 21,44.5C 18.874,42.6234 16.374,41.6234 13.5,41.5C 13.6261,39.8002 14.2927,38.3002 15.5,37C 14.1613,34.9947 12.4947,33.328 10.5,32C 6.81838,32.6639 3.15172,32.4972 -0.5,31.5C -0.5,20.8333 -0.5,10.1667 -0.5,-0.5 Z"/></g>
<g><path style="opacity:1" fill="#5496b8" d="M 286.5,-0.5 C 288.167,-0.5 289.833,-0.5 291.5,-0.5C 292.23,1.04504 293.563,1.87838 295.5,2C 294.464,3.77552 294.464,5.60886 295.5,7.5C 293.098,5.09082 290.431,3.09082 287.5,1.5C 286.833,1.5 286.167,1.5 285.5,1.5C 285.833,0.833333 286.167,0.166667 286.5,-0.5 Z"/></g>
<g><path style="opacity:1" fill="#15b0bf" d="M 291.5,-0.5 C 298.5,-0.5 305.5,-0.5 312.5,-0.5C 312.5,7.5 312.5,15.5 312.5,23.5C 312.167,23.5 311.833,23.5 311.5,23.5C 309.118,20.4517 306.452,17.7851 303.5,15.5C 301.812,11.8116 299.145,9.14494 295.5,7.5C 294.464,5.60886 294.464,3.77552 295.5,2C 293.563,1.87838 292.23,1.04504 291.5,-0.5 Z"/></g>
<g><path style="opacity:1" fill="#cfe3e2" d="M 206.5,-0.5 C 208.833,-0.5 211.167,-0.5 213.5,-0.5C 215.352,3.76044 218.686,5.4271 223.5,4.5C 223.281,3.32496 223.614,2.32496 224.5,1.5C 225.754,3.2592 225.421,4.7592 223.5,6C 225.675,5.95101 227.842,5.45101 230,4.5C 230.5,4.83333 231,5.16667 231.5,5.5C 229.982,8.44077 227.482,9.77411 224,9.5C 218.407,8.3034 212.907,6.97006 207.5,5.5C 207.483,3.43525 207.15,1.43525 206.5,-0.5 Z"/></g>
<g><path style="opacity:1" fill="#f4d14c" d="M 227.5,-0.5 C 238.5,-0.5 249.5,-0.5 260.5,-0.5C 260.167,2.5 258.5,4.16667 255.5,4.5C 254.047,6.82589 252.714,9.32589 251.5,12C 250.09,12.3678 249.09,13.2011 248.5,14.5C 246.604,15.4656 244.604,15.7989 242.5,15.5C 242.5,14.5 242.5,13.5 242.5,12.5C 241.448,12.6495 240.448,12.4828 239.5,12C 236.789,8.99233 234.122,5.99233 231.5,3C 230.207,2.50999 228.873,2.34332 227.5,2.5C 227.5,1.5 227.5,0.5 227.5,-0.5 Z"/></g>
<g><path style="opacity:1" fill="#7a77b1" d="M 295.5,7.5 C 299.145,9.14494 301.812,11.8116 303.5,15.5C 300.575,13.2421 297.909,10.5754 295.5,7.5 Z"/></g>
<g><path style="opacity:1" fill="#2baebc" d="M 285.5,1.5 C 286.167,1.5 286.833,1.5 287.5,1.5C 287.5,9.16667 287.5,16.8333 287.5,24.5C 279.5,24.5 271.5,24.5 263.5,24.5C 263.343,23.1266 263.51,21.7932 264,20.5C 264.718,21.4506 265.551,21.6172 266.5,21C 267.227,19.6012 267.727,18.1012 268,16.5C 268.333,16.8333 268.667,17.1667 269,17.5C 270.617,16.1487 271.784,14.482 272.5,12.5C 277.461,9.52744 281.795,5.86077 285.5,1.5 Z"/></g>
<g><path style="opacity:1" fill="#a258b1" d="M 303.5,15.5 C 306.452,17.7851 309.118,20.4517 311.5,23.5C 307.789,21.7892 305.122,19.1225 303.5,15.5 Z"/></g>
<g><path style="opacity:1" fill="#ef289b" d="M 230.5,13.5 C 231.5,13.8333 232.167,14.5 232.5,15.5C 232.703,17.6382 233.703,19.3049 235.5,20.5C 233.257,21.4742 230.924,21.8076 228.5,21.5C 227.964,18.3019 228.631,15.6353 230.5,13.5 Z"/></g>
<g><path style="opacity:1" fill="#d3669f" d="M 230.5,13.5 C 228.631,15.6353 227.964,18.3019 228.5,21.5C 230.924,21.8076 233.257,21.4742 235.5,20.5C 233.703,19.3049 232.703,17.6382 232.5,15.5C 234.769,17.4253 237.103,19.4253 239.5,21.5C 235.541,22.6599 231.541,22.8265 227.5,22C 226.54,18.27 226.207,14.4367 226.5,10.5C 228.619,10.4677 229.952,11.4677 230.5,13.5 Z"/></g>
<g><path style="opacity:1" fill="#ee2ba1" d="M 287.5,1.5 C 290.431,3.09082 293.098,5.09082 295.5,7.5C 297.909,10.5754 300.575,13.2421 303.5,15.5C 305.122,19.1225 307.789,21.7892 311.5,23.5C 311.833,23.5 312.167,23.5 312.5,23.5C 312.5,24.5 312.5,25.5 312.5,26.5C 311.022,26.238 309.689,26.5713 308.5,27.5C 302.403,34.0988 296.07,40.5988 289.5,47C 288.906,47.4643 288.239,47.631 287.5,47.5C 287.5,39.8333 287.5,32.1667 287.5,24.5C 287.5,16.8333 287.5,9.16667 287.5,1.5 Z"/></g>
<g><path style="opacity:1" fill="#efd77e" d="M 269.5,31.5 C 268.358,29.0283 266.358,28.0283 263.5,28.5C 263.189,35.0898 263.522,41.5898 264.5,48C 272.159,48.4997 279.826,48.6664 287.5,48.5C 287.5,48.8333 287.5,49.1667 287.5,49.5C 279.167,49.5 270.833,49.5 262.5,49.5C 262.5,41.8333 262.5,34.1667 262.5,26.5C 264.564,26.687 266.564,27.187 268.5,28C 269.337,29.0113 269.67,30.1779 269.5,31.5 Z"/></g>
<g><path style="opacity:1" fill="#6b268f" d="M 312.5,26.5 C 312.5,34.1667 312.5,41.8333 312.5,49.5C 311.167,50.1667 310.167,51.1667 309.5,52.5C 308.833,46.6535 308.167,40.6535 307.5,34.5C 302.041,39.4575 296.708,44.6241 291.5,50C 290.207,50.49 288.873,50.6567 287.5,50.5C 287.5,50.1667 287.5,49.8333 287.5,49.5C 287.5,49.1667 287.5,48.8333 287.5,48.5C 287.5,48.1667 287.5,47.8333 287.5,47.5C 288.239,47.631 288.906,47.4643 289.5,47C 296.07,40.5988 302.403,34.0988 308.5,27.5C 309.689,26.5713 311.022,26.238 312.5,26.5 Z"/></g>
<g><path style="opacity:1" fill="#f8d246" d="M 269.5,31.5 C 271.048,31.8212 271.715,32.8212 271.5,34.5C 272.552,34.3505 273.552,34.5172 274.5,35C 278.106,40.1092 282.439,44.2759 287.5,47.5C 287.5,47.8333 287.5,48.1667 287.5,48.5C 279.826,48.6664 272.159,48.4997 264.5,48C 263.522,41.5898 263.189,35.0898 263.5,28.5C 266.358,28.0283 268.358,29.0283 269.5,31.5 Z"/></g>
<g><path style="opacity:1" fill="#f1ead3" d="M -0.5,31.5 C 3.15172,32.4972 6.81838,32.6639 10.5,32C 12.4947,33.328 14.1613,34.9947 15.5,37C 14.2927,38.3002 13.6261,39.8002 13.5,41.5C 16.374,41.6234 18.874,42.6234 21,44.5C 22.2405,49.4199 23.0738,54.4199 23.5,59.5C 23.3507,61.3197 22.6841,62.8197 21.5,64C 10.213,64.8605 6.87963,64.6939 11.5,63.5C 11.0193,57.5002 10.0193,51.8336 8.5,46.5C 5.23422,45.2164 2.23422,43.5498 -0.5,41.5C -0.5,38.1667 -0.5,34.8333 -0.5,31.5 Z"/></g>
<g><path style="opacity:1" fill="#593894" d="M 309.5,52.5 C 302.587,59.578 295.42,66.578 288,73.5C 287.5,65.8406 287.334,58.1739 287.5,50.5C 288.873,50.6567 290.207,50.49 291.5,50C 296.708,44.6241 302.041,39.4575 307.5,34.5C 308.167,40.6535 308.833,46.6535 309.5,52.5 Z"/></g>
<g><path style="opacity:1" fill="#692194" d="M 304.5,40.5 C 305.649,40.7911 306.316,41.6244 306.5,43C 306.04,47.668 305.04,52.168 303.5,56.5C 299.5,56.5 295.5,56.5 291.5,56.5C 291.626,53.5322 293.126,51.5322 296,50.5C 296.483,49.552 296.649,48.552 296.5,47.5C 300.07,46.2671 302.737,43.9337 304.5,40.5 Z"/></g>
<g><path style="opacity:1" fill="#39acb0" d="M 270.5,63.5 C 270.5,65.5 270.5,67.5 270.5,69.5C 269.292,70.2341 267.959,70.5674 266.5,70.5C 266.335,67.4816 266.502,64.4816 267,61.5C 267.816,62.8228 268.983,63.4894 270.5,63.5 Z"/></g>
<g><path style="opacity:1" fill="#776c86" d="M 270.5,69.5 C 270.5,67.5 270.5,65.5 270.5,63.5C 270.202,60.6644 270.869,60.1644 272.5,62C 271.549,65.0567 271.216,68.2234 271.5,71.5C 274.518,71.6646 277.518,71.498 280.5,71C 279.04,70.1887 278.707,69.3554 279.5,68.5C 280.845,69.3467 281.845,70.5134 282.5,72C 278.514,72.4988 274.514,72.6655 270.5,72.5C 270.5,71.5 270.5,70.5 270.5,69.5 Z"/></g>
<g><path style="opacity:1" fill="#f2289e" d="M 19.5,81.5 C 18.8333,80.8333 18.1667,80.1667 17.5,79.5C 16.1667,79.5 15.5,78.8333 15.5,77.5C 14.3065,76.7281 13.3065,75.7281 12.5,74.5C 11.2716,71.9249 9.60491,69.5916 7.5,67.5C 12.7522,67.1822 18.0855,67.1822 23.5,67.5C 23.5,72.1667 23.5,76.8333 23.5,81.5C 22.1667,81.5 20.8333,81.5 19.5,81.5 Z"/></g>
<g><path style="opacity:1" fill="#d45195" d="M 19.5,81.5 C 20.8333,81.5 22.1667,81.5 23.5,81.5C 23.5,76.8333 23.5,72.1667 23.5,67.5C 18.0855,67.1822 12.7522,67.1822 7.5,67.5C 9.60491,69.5916 11.2716,71.9249 12.5,74.5C 9.52107,72.1877 6.8544,69.5211 4.5,66.5C 11.1335,65.5033 17.8002,65.17 24.5,65.5C 24.6663,72.5079 24.4996,79.5079 24,86.5C 22.2927,84.9625 20.7927,83.2959 19.5,81.5 Z"/></g>
<g><path style="opacity:1" fill="#f0e0a3" d="M 312.5,70.5 C 312.5,81.8333 312.5,93.1667 312.5,104.5C 311.279,101.44 309.112,99.1066 306,97.5C 305.055,97.9054 304.388,98.572 304,99.5C 303.808,97.4233 303.308,95.4233 302.5,93.5C 298.021,91.54 296.521,88.2067 298,83.5C 301.156,81.6799 303.156,79.0133 304,75.5C 304.414,75.9574 304.914,76.2907 305.5,76.5C 307.125,73.6417 309.458,71.6417 312.5,70.5 Z"/></g>
<g><path style="opacity:1" fill="#f3ead0" d="M 15.5,77.5 C 15.5,78.8333 16.1667,79.5 17.5,79.5C 17.178,81.7224 17.8446,83.5557 19.5,85C 18.4829,86.0495 18.3162,87.2161 19,88.5C 20.3662,90.3703 21.5328,92.3703 22.5,94.5C 22.1373,95.1835 21.8039,95.8501 21.5,96.5C 19.7155,95.044 17.7155,94.044 15.5,93.5C 14.8394,90.1869 13.0061,87.5203 10,85.5C 9.51722,84.552 9.35055,83.552 9.5,82.5C 6.31513,80.7225 2.9818,79.0558 -0.5,77.5C -0.5,76.8333 -0.5,76.1667 -0.5,75.5C 2.1194,75.2317 4.6194,75.565 7,76.5C 7.68909,75.6433 8.52242,74.9767 9.5,74.5C 10.7224,76.9783 12.7224,77.9783 15.5,77.5 Z"/></g>
<g><path style="opacity:1" fill="#f7cf48" d="M -0.5,77.5 C 2.9818,79.0558 6.31513,80.7225 9.5,82.5C 9.35055,83.552 9.51722,84.552 10,85.5C 13.0061,87.5203 14.8394,90.1869 15.5,93.5C 17.7155,94.044 19.7155,95.044 21.5,96.5C 24.0025,98.6104 24.0025,100.61 21.5,102.5C 21.5,102.833 21.5,103.167 21.5,103.5C 18.2239,105.415 15.8905,108.082 14.5,111.5C 13.448,111.351 12.448,111.517 11.5,112C 8.02503,116.642 4.02503,120.809 -0.5,124.5C -0.5,108.833 -0.5,93.1667 -0.5,77.5 Z"/></g>
<g><path style="opacity:1" fill="#6a2492" d="M 21.5,103.5 C 22.4972,103.47 23.1639,103.97 23.5,105C 22.2643,106.856 22.2643,108.689 23.5,110.5C 22.1336,112.322 20.3002,113.322 18,113.5C 16.3189,113.392 15.1522,112.725 14.5,111.5C 15.8905,108.082 18.2239,105.415 21.5,103.5 Z"/></g>
<g><path style="opacity:1" fill="#6e2c74" d="M 21.5,103.5 C 21.5,103.167 21.5,102.833 21.5,102.5C 22.5,102.5 23.5,102.5 24.5,102.5C 24.5,106.167 24.5,109.833 24.5,113.5C 21.0969,115.9 18.4302,118.9 16.5,122.5C 16.0617,120.362 15.8951,118.028 16,115.5C 15.6667,116.167 15.3333,116.833 15,117.5C 14.196,116.196 13.0293,115.529 11.5,115.5C 7.82961,119.165 3.82961,122.499 -0.5,125.5C -0.5,125.167 -0.5,124.833 -0.5,124.5C 4.02503,120.809 8.02503,116.642 11.5,112C 12.448,111.517 13.448,111.351 14.5,111.5C 15.1522,112.725 16.3189,113.392 18,113.5C 20.3002,113.322 22.1336,112.322 23.5,110.5C 22.2643,108.689 22.2643,106.856 23.5,105C 23.1639,103.97 22.4972,103.47 21.5,103.5 Z"/></g>
<g><path style="opacity:1" fill="#d93d8f" d="M 312.5,107.5 C 312.5,110.5 312.5,113.5 312.5,116.5C 309.482,116.665 306.482,116.498 303.5,116C 306.369,112.962 309.369,110.129 312.5,107.5 Z"/></g>
<g><path style="opacity:1" fill="#653178" d="M 24.5,115.5 C 24.5,117.167 24.5,118.833 24.5,120.5C 22.8008,120.66 21.1341,120.494 19.5,120C 21.0375,118.293 22.7041,116.793 24.5,115.5 Z"/></g>
<g><path style="opacity:1" fill="#ac779f" d="M 24.5,113.5 C 24.5,114.167 24.5,114.833 24.5,115.5C 22.7041,116.793 21.0375,118.293 19.5,120C 21.1341,120.494 22.8008,120.66 24.5,120.5C 24.5,121.167 24.5,121.833 24.5,122.5C 21.8333,122.5 19.1667,122.5 16.5,122.5C 18.4302,118.9 21.0969,115.9 24.5,113.5 Z"/></g>
<g><path style="opacity:1" fill="#e2448f" d="M 47.5,123.5 C 47.5,123.833 47.5,124.167 47.5,124.5C 40.1591,124.666 32.8258,124.5 25.5,124C 26.056,123.617 26.3893,123.117 26.5,122.5C 30.1399,119.196 33.8066,115.863 37.5,112.5C 41.5881,115.583 44.9214,119.25 47.5,123.5 Z"/></g>
<g><path style="opacity:1" fill="#26b2ac" d="M 63.5,114.5 C 67.6009,116.765 70.9342,119.932 73.5,124C 70.1832,124.498 66.8499,124.665 63.5,124.5C 63.5,121.167 63.5,117.833 63.5,114.5 Z"/></g>
<g><path style="opacity:1" fill="#ee97d2" d="M 24.5,120.5 C 25.1667,121.167 25.8333,121.833 26.5,122.5C 26.3893,123.117 26.056,123.617 25.5,124C 32.8258,124.5 40.1591,124.666 47.5,124.5C 47.5,124.833 47.5,125.167 47.5,125.5C 39.8333,125.5 32.1667,125.5 24.5,125.5C 24.5,124.5 24.5,123.5 24.5,122.5C 24.5,121.833 24.5,121.167 24.5,120.5 Z"/></g>
<g><path style="opacity:1" fill="#ece9e8" d="M 24.5,125.5 C 32.1667,125.5 39.8333,125.5 47.5,125.5C 48.7568,132.428 48.7568,139.761 47.5,147.5C 40.8221,147.494 34.1554,147.494 27.5,147.5C 26.9054,143.48 27.4054,139.48 29,135.5C 29.1786,138.553 29.6786,141.553 30.5,144.5C 30.8333,142.833 31.1667,141.167 31.5,139.5C 31.3868,137.359 30.7201,135.525 29.5,134C 30.3081,133.692 30.9747,133.192 31.5,132.5C 30.6086,131.41 29.6086,131.41 28.5,132.5C 27.8333,130.833 27.1667,129.167 26.5,127.5C 25.5027,134.803 25.1694,142.137 25.5,149.5C 25.1667,149.5 24.8333,149.5 24.5,149.5C 24.5,141.5 24.5,133.5 24.5,125.5 Z"/></g>
<g><path style="opacity:1" fill="#662493" d="M 16.5,122.5 C 19.1667,122.5 21.8333,122.5 24.5,122.5C 24.5,123.5 24.5,124.5 24.5,125.5C 22.0316,126.52 20.365,128.354 19.5,131C 16.7135,131.288 15.0468,132.788 14.5,135.5C 13.7611,135.369 13.0944,135.536 12.5,136C 8.61229,140.714 4.61229,145.214 0.5,149.5C 0.166667,149.5 -0.166667,149.5 -0.5,149.5C -0.5,141.5 -0.5,133.5 -0.5,125.5C 3.82961,122.499 7.82961,119.165 11.5,115.5C 13.0293,115.529 14.196,116.196 15,117.5C 15.3333,116.833 15.6667,116.167 16,115.5C 15.8951,118.028 16.0617,120.362 16.5,122.5 Z"/></g>
<g><path style="opacity:1" fill="#622c7a" d="M 52.5,128.5 C 56.5,131.833 60.1667,135.5 63.5,139.5C 62.1667,139.5 60.8333,139.5 59.5,139.5C 59.269,136.1 57.4357,134.1 54,133.5C 53.3923,131.846 52.8923,130.179 52.5,128.5 Z"/></g>
<g><path style="opacity:1" fill="#1cb0ba" d="M 24.5,125.5 C 24.5,133.5 24.5,141.5 24.5,149.5C 16.8333,149.5 9.16667,149.5 1.5,149.5C 5.35252,148.834 9.35252,148.167 13.5,147.5C 11.1667,146.833 8.83333,146.167 6.5,145.5C 8.81032,141.859 11.477,138.526 14.5,135.5C 15.0468,132.788 16.7135,131.288 19.5,131C 20.365,128.354 22.0316,126.52 24.5,125.5 Z"/></g>
<g><path style="opacity:1" fill="#dacada" d="M 47.5,123.5 C 49.5,124.167 50.8333,125.5 51.5,127.5C 51.1667,127.5 50.8333,127.5 50.5,127.5C 49.5084,134.648 49.175,141.981 49.5,149.5C 41.5,149.5 33.5,149.5 25.5,149.5C 25.1694,142.137 25.5027,134.803 26.5,127.5C 27.1667,129.167 27.8333,130.833 28.5,132.5C 29.6086,131.41 30.6086,131.41 31.5,132.5C 30.9747,133.192 30.3081,133.692 29.5,134C 30.7201,135.525 31.3868,137.359 31.5,139.5C 31.1667,141.167 30.8333,142.833 30.5,144.5C 29.6786,141.553 29.1786,138.553 29,135.5C 27.4054,139.48 26.9054,143.48 27.5,147.5C 34.1554,147.494 40.8221,147.494 47.5,147.5C 48.7568,139.761 48.7568,132.428 47.5,125.5C 47.5,125.167 47.5,124.833 47.5,124.5C 47.5,124.167 47.5,123.833 47.5,123.5 Z"/></g>
<g><path style="opacity:1" fill="#692395" d="M 50.5,127.5 C 50.8333,127.5 51.1667,127.5 51.5,127.5C 52.1667,127.5 52.5,127.833 52.5,128.5C 52.8923,130.179 53.3923,131.846 54,133.5C 57.4357,134.1 59.269,136.1 59.5,139.5C 60.8333,139.5 62.1667,139.5 63.5,139.5C 66.1667,141.5 68.5,143.833 70.5,146.5C 69.4479,148.256 67.7812,148.923 65.5,148.5C 64.8333,144.5 64.1667,144.5 63.5,148.5C 59.5,148.5 55.5,148.5 51.5,148.5C 50.7103,141.529 50.3769,134.529 50.5,127.5 Z"/></g>
<g><path style="opacity:1" fill="#309cc7" d="M 14.5,135.5 C 11.477,138.526 8.81032,141.859 6.5,145.5C 8.83333,146.167 11.1667,146.833 13.5,147.5C 9.35252,148.167 5.35252,148.834 1.5,149.5C 1.16667,149.5 0.833333,149.5 0.5,149.5C 4.61229,145.214 8.61229,140.714 12.5,136C 13.0944,135.536 13.7611,135.369 14.5,135.5 Z"/></g>
<g><path style="opacity:1" fill="#503080" d="M 50.5,127.5 C 50.3769,134.529 50.7103,141.529 51.5,148.5C 55.5,148.5 59.5,148.5 63.5,148.5C 64.1667,144.5 64.8333,144.5 65.5,148.5C 67.7812,148.923 69.4479,148.256 70.5,146.5C 71.8333,147.167 72.8333,148.167 73.5,149.5C 65.5,149.5 57.5,149.5 49.5,149.5C 49.175,141.981 49.5084,134.648 50.5,127.5 Z"/></g>
<g><path style="opacity:1" fill="#f4edbb" d="M 84.5,149.5 C 98.6473,144.65 103.647,149.317 99.5,163.5C 99.6655,159.486 99.4988,155.486 99,151.5C 98.6174,150.944 98.1174,150.611 97.5,150.5C 93.3656,149.515 89.0323,149.182 84.5,149.5 Z"/></g>
<g><path style="opacity:1" fill="#a9ce7b" d="M 1.5,150.5 C 1.5,150.167 1.5,149.833 1.5,149.5C 9.16667,149.5 16.8333,149.5 24.5,149.5C 24.8333,149.5 25.1667,149.5 25.5,149.5C 25.5569,150.609 25.8902,151.609 26.5,152.5C 24.5437,158.412 23.8771,164.745 24.5,171.5C 24.1667,171.5 23.8333,171.5 23.5,171.5C 23.5,164.5 23.5,157.5 23.5,150.5C 16.1667,150.5 8.83333,150.5 1.5,150.5 Z"/></g>
<g><path style="opacity:1" fill="#cfe6e6" d="M 100.5,169.5 C 99.6586,167.621 99.3253,165.621 99.5,163.5C 103.647,149.317 98.6473,144.65 84.5,149.5C 83.1667,149.5 81.8333,149.5 80.5,149.5C 80.0472,148.542 79.3805,147.708 78.5,147C 86.4931,146.5 94.4931,146.334 102.5,146.5C 102.666,152.842 102.5,159.175 102,165.5C 101.79,167.058 101.29,168.391 100.5,169.5 Z"/></g>
<g><path style="opacity:1" fill="#e9cb62" d="M 78.5,149.5 C 79.1667,149.5 79.8333,149.5 80.5,149.5C 81.8333,149.5 83.1667,149.5 84.5,149.5C 89.0323,149.182 93.3656,149.515 97.5,150.5C 98.1174,150.611 98.6174,150.944 99,151.5C 99.4988,155.486 99.6655,159.486 99.5,163.5C 99.3253,165.621 99.6586,167.621 100.5,169.5C 100.5,169.833 100.5,170.167 100.5,170.5C 99.8333,171.5 99.1667,172.5 98.5,173.5C 98.1667,173.5 97.8333,173.5 97.5,173.5C 97.1583,172.662 96.4916,172.328 95.5,172.5C 92.1907,168.185 88.8574,163.852 85.5,159.5C 88.9133,161.61 91.9133,164.277 94.5,167.5C 95.4287,166.311 95.762,164.978 95.5,163.5C 93.3193,163.716 91.6526,162.883 90.5,161C 90.8333,160.667 91.1667,160.333 91.5,160C 88.4829,156.914 85.4829,153.914 82.5,151C 81.5,150.333 80.5,150.333 79.5,151C 80.9987,152.797 82.4987,154.631 84,156.5C 84.4828,157.448 84.6495,158.448 84.5,159.5C 81.2941,157.353 78.6274,154.686 76.5,151.5C 76.5,150.167 77.1667,149.5 78.5,149.5 Z"/></g>
<g><path style="opacity:1" fill="#f9d042" d="M 97.5,150.5 C 98.3597,154.434 98.693,158.434 98.5,162.5C 93.7677,162.076 91.601,159.41 92,154.5C 91.2825,155.451 90.4491,155.617 89.5,155C 88.6872,153.686 87.6872,152.519 86.5,151.5C 90.1073,150.511 93.774,150.177 97.5,150.5 Z"/></g>
<g><path style="opacity:1" fill="#92b1b7" d="M 100.5,170.5 C 100.5,170.167 100.5,169.833 100.5,169.5C 101.29,168.391 101.79,167.058 102,165.5C 102.5,159.175 102.666,152.842 102.5,146.5C 94.4931,146.334 86.4931,146.5 78.5,147C 79.3805,147.708 80.0472,148.542 80.5,149.5C 79.8333,149.5 79.1667,149.5 78.5,149.5C 77.8592,148.518 77.1925,147.518 76.5,146.5C 85.4754,145.502 94.4754,145.168 103.5,145.5C 103.832,154.525 103.498,163.525 102.5,172.5C 101.478,172.145 100.811,171.478 100.5,170.5 Z"/></g>
<g><path style="opacity:1" fill="#eb2fa0" d="M 43.5,168.5 C 41.3302,167.162 39.6635,165.328 38.5,163C 37.552,162.517 36.552,162.351 35.5,162.5C 35.5,161.5 35.5,160.5 35.5,159.5C 34.1667,159.5 32.8333,159.5 31.5,159.5C 31.5,158.5 31.5,157.5 31.5,156.5C 29.7706,155.764 28.7706,154.43 28.5,152.5C 28.3893,151.883 28.056,151.383 27.5,151C 34.4921,150.5 41.4921,150.334 48.5,150.5C 48.83,157.2 48.4967,163.866 47.5,170.5C 46.3777,169.37 45.0443,168.703 43.5,168.5 Z"/></g>
<g><path style="opacity:1" fill="#f5d245" d="M 1.5,150.5 C 8.83333,150.5 16.1667,150.5 23.5,150.5C 23.5,157.5 23.5,164.5 23.5,171.5C 21.0976,169.091 18.4309,167.091 15.5,165.5C 15.5,164.833 15.1667,164.5 14.5,164.5C 13.5129,162.449 12.1795,160.782 10.5,159.5C 7.21483,156.882 4.21483,153.882 1.5,150.5 Z"/></g>
<g><path style="opacity:1" fill="#36a3d6" d="M 26.5,152.5 C 27.1667,152.5 27.8333,152.5 28.5,152.5C 28.7706,154.43 29.7706,155.764 31.5,156.5C 30.3303,158.279 28.6636,159.279 26.5,159.5C 26.5,157.167 26.5,154.833 26.5,152.5 Z"/></g>
<g><path style="opacity:1" fill="#c9d24f" d="M 85.5,159.5 C 85.1667,159.5 84.8333,159.5 84.5,159.5C 84.6495,158.448 84.4828,157.448 84,156.5C 82.4987,154.631 80.9987,152.797 79.5,151C 80.5,150.333 81.5,150.333 82.5,151C 85.4829,153.914 88.4829,156.914 91.5,160C 91.1667,160.333 90.8333,160.667 90.5,161C 91.6526,162.883 93.3193,163.716 95.5,163.5C 95.762,164.978 95.4287,166.311 94.5,167.5C 91.9133,164.277 88.9133,161.61 85.5,159.5 Z"/></g>
<g><path style="opacity:1" fill="#27afa5" d="M 26.5,152.5 C 26.5,154.833 26.5,157.167 26.5,159.5C 28.6636,159.279 30.3303,158.279 31.5,156.5C 31.5,157.5 31.5,158.5 31.5,159.5C 30.3922,160.823 30.3922,162.323 31.5,164C 30.7113,165.626 29.7113,167.126 28.5,168.5C 27.9426,166.282 27.9426,163.949 28.5,161.5C 27.5,161.5 26.5,161.5 25.5,161.5C 25.815,165.371 25.4816,169.038 24.5,172.5C 24.5,172.167 24.5,171.833 24.5,171.5C 23.8771,164.745 24.5437,158.412 26.5,152.5 Z"/></g>
<g><path style="opacity:1" fill="#e9766c" d="M 10.5,159.5 C 12.1795,160.782 13.5129,162.449 14.5,164.5C 13.5,164.5 12.5,164.5 11.5,164.5C 11.3713,162.784 11.038,161.117 10.5,159.5 Z"/></g>
<g><path style="opacity:1" fill="#8767a4" d="M 73.5,152.5 C 73.8333,152.5 74.1667,152.5 74.5,152.5C 74.5,159.5 74.5,166.5 74.5,173.5C 81.6866,173.825 88.6866,173.491 95.5,172.5C 96.4916,172.328 97.1583,172.662 97.5,173.5C 90.9131,175.461 83.9131,176.128 76.5,175.5C 75.3065,175.97 74.6399,176.97 74.5,178.5C 74.7092,179.994 75.3759,181.161 76.5,182C 75.267,183.698 74.6004,185.698 74.5,188C 74.6004,190.302 75.267,192.302 76.5,194C 73.8333,195.333 73.8333,196.667 76.5,198C 74.1599,198.748 72.1599,198.248 70.5,196.5C 69.8333,195.5 69.1667,194.5 68.5,193.5C 70.371,193.859 71.871,194.859 73,196.5C 73.4996,189.508 73.6663,182.508 73.5,175.5C 73.5,174.167 73.5,172.833 73.5,171.5C 73.5,165.167 73.5,158.833 73.5,152.5 Z"/></g>
<g><path style="opacity:1" fill="#f7a277" d="M 15.5,165.5 C 18.4309,167.091 21.0976,169.091 23.5,171.5C 23.8333,171.5 24.1667,171.5 24.5,171.5C 24.5,171.833 24.5,172.167 24.5,172.5C 24.5,172.833 24.5,173.167 24.5,173.5C 24.1667,173.5 23.8333,173.5 23.5,173.5C 20.5,171.167 17.8333,168.5 15.5,165.5 Z"/></g>
<g><path style="opacity:1" fill="#2cabbe" d="M 31.5,159.5 C 32.8333,159.5 34.1667,159.5 35.5,159.5C 35.5,160.5 35.5,161.5 35.5,162.5C 36.552,162.351 37.552,162.517 38.5,163C 39.6635,165.328 41.3302,167.162 43.5,168.5C 45.7053,170.363 47.0387,172.697 47.5,175.5C 47.1667,175.5 46.8333,175.5 46.5,175.5C 45.609,174.89 44.609,174.557 43.5,174.5C 42.5084,174.328 41.8417,174.662 41.5,175.5C 40.8333,175.5 40.1667,175.5 39.5,175.5C 38.609,174.89 37.609,174.557 36.5,174.5C 35.5084,174.328 34.8417,174.662 34.5,175.5C 33.3478,174.375 32.3478,174.375 31.5,175.5C 31.1667,175.5 30.8333,175.5 30.5,175.5C 29.5,175.5 28.5,175.5 27.5,175.5C 26.5,174.833 25.5,174.167 24.5,173.5C 24.5,173.167 24.5,172.833 24.5,172.5C 25.4816,169.038 25.815,165.371 25.5,161.5C 26.5,161.5 27.5,161.5 28.5,161.5C 27.9426,163.949 27.9426,166.282 28.5,168.5C 29.7113,167.126 30.7113,165.626 31.5,164C 30.3922,162.323 30.3922,160.823 31.5,159.5 Z"/></g>
<g><path style="opacity:1" fill="#b058a7" d="M 25.5,149.5 C 33.5,149.5 41.5,149.5 49.5,149.5C 49.5,158.167 49.5,166.833 49.5,175.5C 48.8333,175.5 48.1667,175.5 47.5,175.5C 47.0387,172.697 45.7053,170.363 43.5,168.5C 45.0443,168.703 46.3777,169.37 47.5,170.5C 48.4967,163.866 48.83,157.2 48.5,150.5C 41.4921,150.334 34.4921,150.5 27.5,151C 28.056,151.383 28.3893,151.883 28.5,152.5C 27.8333,152.5 27.1667,152.5 26.5,152.5C 25.8902,151.609 25.5569,150.609 25.5,149.5 Z"/></g>
<g><path style="opacity:1" fill="#11b1bf" d="M 73.5,152.5 C 73.5,158.833 73.5,165.167 73.5,171.5C 70.431,172.743 67.0977,173.409 63.5,173.5C 59.2118,173.023 55.0451,173.023 51,173.5C 50.5003,165.841 50.3336,158.174 50.5,150.5C 54.8333,150.5 59.1667,150.5 63.5,150.5C 64.1667,154.5 64.8333,154.5 65.5,150.5C 68.6981,149.964 71.3647,150.631 73.5,152.5 Z"/></g>
<g><path style="opacity:1" fill="#f22a9d" d="M 75.5,151.5 C 75.8333,151.5 76.1667,151.5 76.5,151.5C 78.6274,154.686 81.2941,157.353 84.5,159.5C 84.8333,159.5 85.1667,159.5 85.5,159.5C 88.8574,163.852 92.1907,168.185 95.5,172.5C 88.6866,173.491 81.6866,173.825 74.5,173.5C 74.5,166.5 74.5,159.5 74.5,152.5C 74.5,151.833 74.8333,151.5 75.5,151.5 Z"/></g>
<g><path style="opacity:1" fill="#d44c92" d="M 129.5,162.5 C 132.427,163.757 134.761,165.757 136.5,168.5C 137.167,168.833 137.833,169.167 138.5,169.5C 139.476,170.815 140.476,172.148 141.5,173.5C 137.555,174.491 133.555,174.824 129.5,174.5C 129.5,170.5 129.5,166.5 129.5,162.5 Z"/></g>
<g><path style="opacity:1" fill="#f32a99" d="M 136.5,168.5 C 138.081,172.923 136.415,174.59 131.5,173.5C 131.337,171.143 131.503,168.81 132,166.5C 133.33,167.582 134.83,168.249 136.5,168.5 Z"/></g>
<g><path style="opacity:1" fill="#f4279e" d="M -0.5,149.5 C -0.166667,149.5 0.166667,149.5 0.5,149.5C 0.833333,149.5 1.16667,149.5 1.5,149.5C 1.5,149.833 1.5,150.167 1.5,150.5C 4.21483,153.882 7.21483,156.882 10.5,159.5C 11.038,161.117 11.3713,162.784 11.5,164.5C 12.5,164.5 13.5,164.5 14.5,164.5C 15.1667,164.5 15.5,164.833 15.5,165.5C 17.8333,168.5 20.5,171.167 23.5,173.5C 24.4421,182.113 24.7754,190.779 24.5,199.5C 16.1667,199.5 7.83333,199.5 -0.5,199.5C -0.5,182.833 -0.5,166.167 -0.5,149.5 Z"/></g>
<g><path style="opacity:1" fill="#3f91b9" d="M 49.5,149.5 C 57.5,149.5 65.5,149.5 73.5,149.5C 74.5,149.833 75.1667,150.5 75.5,151.5C 74.8333,151.5 74.5,151.833 74.5,152.5C 74.1667,152.5 73.8333,152.5 73.5,152.5C 71.3647,150.631 68.6981,149.964 65.5,150.5C 64.8333,154.5 64.1667,154.5 63.5,150.5C 59.1667,150.5 54.8333,150.5 50.5,150.5C 50.3336,158.174 50.5003,165.841 51,173.5C 55.0451,173.023 59.2118,173.023 63.5,173.5C 67.0977,173.409 70.431,172.743 73.5,171.5C 73.5,172.833 73.5,174.167 73.5,175.5C 72.5,175.5 71.5,175.5 70.5,175.5C 64.1667,174.167 57.8333,174.167 51.5,175.5C 50.8333,175.5 50.1667,175.5 49.5,175.5C 49.5,166.833 49.5,158.167 49.5,149.5 Z"/></g>
<g><path style="opacity:1" fill="#847190" d="M 36.5,174.5 C 40.5,179.167 44.8333,183.5 49.5,187.5C 49.5,188.5 49.5,189.5 49.5,190.5C 44.1667,185.833 39.1667,180.833 34.5,175.5C 34.8417,174.662 35.5084,174.328 36.5,174.5 Z"/></g>
<g><path style="opacity:1" fill="#65506d" d="M 43.5,174.5 C 44.609,174.557 45.609,174.89 46.5,175.5C 47.925,176.922 48.925,178.589 49.5,180.5C 47.1667,178.833 45.1667,176.833 43.5,174.5 Z"/></g>
<g><path style="opacity:1" fill="#345089" d="M 70.5,175.5 C 64.0738,174.88 58.0738,175.547 52.5,177.5C 51.6618,177.158 51.3284,176.492 51.5,175.5C 57.8333,174.167 64.1667,174.167 70.5,175.5 Z"/></g>
<g><path style="opacity:1" fill="#e4d2ea" d="M 43.5,174.5 C 45.1667,176.833 47.1667,178.833 49.5,180.5C 49.5,181.5 49.5,182.5 49.5,183.5C 46.5,181.167 43.8333,178.5 41.5,175.5C 41.8417,174.662 42.5084,174.328 43.5,174.5 Z"/></g>
<g><path style="opacity:1" fill="#e2c4ec" d="M 27.5,175.5 C 28.5,175.5 29.5,175.5 30.5,175.5C 36.5,182.167 42.8333,188.5 49.5,194.5C 49.5,196.167 49.5,197.833 49.5,199.5C 49.1667,199.5 48.8333,199.5 48.5,199.5C 48.6495,198.448 48.4828,197.448 48,196.5C 40.9641,189.632 34.1307,182.632 27.5,175.5 Z"/></g>
<g><path style="opacity:1" fill="#f6e6fc" d="M 36.5,174.5 C 37.609,174.557 38.609,174.89 39.5,175.5C 42.5,179.167 45.8333,182.5 49.5,185.5C 49.5,186.167 49.5,186.833 49.5,187.5C 44.8333,183.5 40.5,179.167 36.5,174.5 Z"/></g>
<g><path style="opacity:1" fill="#f0e8ea" d="M 129.5,162.5 C 129.5,166.5 129.5,170.5 129.5,174.5C 133.555,174.824 137.555,174.491 141.5,173.5C 140.476,172.148 139.476,170.815 138.5,169.5C 140.086,170.413 141.586,170.413 143,169.5C 143.236,171.764 143.736,173.931 144.5,176C 138.866,176.634 138.532,177.134 143.5,177.5C 143.5,178.5 143.5,179.5 143.5,180.5C 142.022,180.238 140.689,180.571 139.5,181.5C 141.991,182.541 141.991,183.374 139.5,184C 139.482,187.581 138.482,191.081 136.5,194.5C 127.983,194.174 119.65,194.507 111.5,195.5C 110.167,196.833 108.833,198.167 107.5,199.5C 104.833,199.5 102.167,199.5 99.5,199.5C 106.113,192.221 113.113,185.221 120.5,178.5C 121.833,178.5 123.167,178.5 124.5,178.5C 124.5,177.5 124.5,176.5 124.5,175.5C 129.797,174.968 129.797,174.134 124.5,173C 118.15,172.476 111.816,172.642 105.5,173.5C 105.5,172.5 105.5,171.5 105.5,170.5C 107.06,170.519 108.56,170.852 110,171.5C 111.22,170.612 112.553,169.945 114,169.5C 118.499,170.691 122.999,170.691 127.5,169.5C 127.5,168.5 127.5,167.5 127.5,166.5C 120.035,166.091 112.702,166.757 105.5,168.5C 105.5,167.5 105.5,166.5 105.5,165.5C 107.167,165.5 108.833,165.5 110.5,165.5C 110.84,162.856 110.173,160.523 108.5,158.5C 109.242,157.713 110.075,157.047 111,156.5C 111.494,158.134 111.66,159.801 111.5,161.5C 117.303,160.913 122.803,161.58 128,163.5C 128.383,162.944 128.883,162.611 129.5,162.5 Z"/></g>
<g><path style="opacity:1" fill="#674c6d" d="M 39.5,175.5 C 40.1667,175.5 40.8333,175.5 41.5,175.5C 43.8333,178.5 46.5,181.167 49.5,183.5C 49.5,184.167 49.5,184.833 49.5,185.5C 45.8333,182.5 42.5,179.167 39.5,175.5 Z"/></g>
<g><path style="opacity:1" fill="#fae7fb" d="M 31.5,175.5 C 32.3478,174.375 33.3478,174.375 34.5,175.5C 39.1667,180.833 44.1667,185.833 49.5,190.5C 49.5,191.167 49.5,191.833 49.5,192.5C 43.5,186.833 37.5,181.167 31.5,175.5 Z"/></g>
<g><path style="opacity:1" fill="#8b535a" d="M 56.5,181.5 C 59.4378,182.622 61.4378,184.622 62.5,187.5C 59.9501,185.923 57.9501,183.923 56.5,181.5 Z"/></g>
<g><path style="opacity:1" fill="#1eb1be" d="M 97.5,173.5 C 97.8333,173.5 98.1667,173.5 98.5,173.5C 106.657,174.329 114.99,174.829 123.5,175C 122.29,176.039 121.29,177.206 120.5,178.5C 113.113,185.221 106.113,192.221 99.5,199.5C 99.1667,199.5 98.8333,199.5 98.5,199.5C 92.8695,193.369 87.0362,187.369 81,181.5C 78.8707,182.863 78.3707,182.529 79.5,180.5C 78.0476,179.06 77.0476,177.394 76.5,175.5C 83.9131,176.128 90.9131,175.461 97.5,173.5 Z"/></g>
<g><path style="opacity:1" fill="#694c70" d="M 30.5,175.5 C 30.8333,175.5 31.1667,175.5 31.5,175.5C 37.5,181.167 43.5,186.833 49.5,192.5C 49.5,193.167 49.5,193.833 49.5,194.5C 42.8333,188.5 36.5,182.167 30.5,175.5 Z"/></g>
<g><path style="opacity:1" fill="#652292" d="M 70.5,175.5 C 71.5,175.5 72.5,175.5 73.5,175.5C 73.6663,182.508 73.4996,189.508 73,196.5C 71.871,194.859 70.371,193.859 68.5,193.5C 67.7777,192.449 66.7777,191.782 65.5,191.5C 65.9118,189.027 64.9118,187.694 62.5,187.5C 61.4378,184.622 59.4378,182.622 56.5,181.5C 55.5,179.833 54.1667,178.5 52.5,177.5C 58.0738,175.547 64.0738,174.88 70.5,175.5 Z"/></g>
<g><path style="opacity:1" fill="#e8cb72" d="M 46.5,175.5 C 46.8333,175.5 47.1667,175.5 47.5,175.5C 48.1667,175.5 48.8333,175.5 49.5,175.5C 50.1667,175.5 50.8333,175.5 51.5,175.5C 51.3284,176.492 51.6618,177.158 52.5,177.5C 54.1667,178.5 55.5,179.833 56.5,181.5C 54.5742,180.758 52.7409,179.758 51,178.5C 50.5004,185.492 50.3337,192.492 50.5,199.5C 50.1667,199.5 49.8333,199.5 49.5,199.5C 49.5,197.833 49.5,196.167 49.5,194.5C 49.5,193.833 49.5,193.167 49.5,192.5C 49.5,191.833 49.5,191.167 49.5,190.5C 49.5,189.5 49.5,188.5 49.5,187.5C 49.5,186.833 49.5,186.167 49.5,185.5C 49.5,184.833 49.5,184.167 49.5,183.5C 49.5,182.5 49.5,181.5 49.5,180.5C 48.925,178.589 47.925,176.922 46.5,175.5 Z"/></g>
<g><path style="opacity:1" fill="#926268" d="M 62.5,187.5 C 64.9118,187.694 65.9118,189.027 65.5,191.5C 63.7986,190.789 62.7986,189.455 62.5,187.5 Z"/></g>
<g><path style="opacity:1" fill="#da9bc5" d="M 121.5,184.5 C 123.5,184.5 125.5,184.5 127.5,184.5C 127.5,185.833 127.5,187.167 127.5,188.5C 129.199,188.34 130.866,188.506 132.5,189C 132.167,189.333 131.833,189.667 131.5,190C 126.798,190.828 122.131,190.662 117.5,189.5C 119.207,188.127 120.54,186.461 121.5,184.5 Z"/></g>
<g><path style="opacity:1" fill="#c0e0dc" d="M 178.5,199.5 C 175.833,199.5 173.167,199.5 170.5,199.5C 166.049,193.545 160.549,188.879 154,185.5C 152.681,187.25 152.181,189.25 152.5,191.5C 151.5,191.5 150.5,191.5 149.5,191.5C 149.631,190.761 149.464,190.094 149,189.5C 148.035,191.26 146.868,191.594 145.5,190.5C 146.833,189.167 146.833,187.833 145.5,186.5C 149.374,183.748 153.041,180.748 156.5,177.5C 164.188,184.521 171.521,191.854 178.5,199.5 Z"/></g>
<g><path style="opacity:1" fill="#f7d044" d="M 56.5,181.5 C 57.9501,183.923 59.9501,185.923 62.5,187.5C 62.7986,189.455 63.7986,190.789 65.5,191.5C 66.7777,191.782 67.7777,192.449 68.5,193.5C 69.1667,194.5 69.8333,195.5 70.5,196.5C 70.5,197.5 70.5,198.5 70.5,199.5C 63.8333,199.5 57.1667,199.5 50.5,199.5C 50.3337,192.492 50.5004,185.492 51,178.5C 52.7409,179.758 54.5742,180.758 56.5,181.5 Z"/></g>
<g><path style="opacity:1" fill="#67248f" d="M 23.5,173.5 C 23.8333,173.5 24.1667,173.5 24.5,173.5C 25.5,174.167 26.5,174.833 27.5,175.5C 34.1307,182.632 40.9641,189.632 48,196.5C 48.4828,197.448 48.6495,198.448 48.5,199.5C 40.5,199.5 32.5,199.5 24.5,199.5C 24.7754,190.779 24.4421,182.113 23.5,173.5 Z"/></g>
<g><path style="opacity:1" fill="#d37aaa" d="M 114.5,191.5 C 121.532,191.17 128.532,191.503 135.5,192.5C 132,192.833 128.5,193.167 125,193.5C 121.098,193.488 117.598,192.821 114.5,191.5 Z"/></g>
<g><path style="opacity:1" fill="#b880a5" d="M 136.5,194.5 C 137.167,194.5 137.833,194.5 138.5,194.5C 129.895,196.471 120.895,197.138 111.5,196.5C 111.5,196.167 111.5,195.833 111.5,195.5C 119.65,194.507 127.983,194.174 136.5,194.5 Z"/></g>
<g><path style="opacity:1" fill="#ebefd3" d="M 170.5,199.5 C 168.833,199.5 167.167,199.5 165.5,199.5C 162.607,194.236 158.274,191.569 152.5,191.5C 152.181,189.25 152.681,187.25 154,185.5C 160.549,188.879 166.049,193.545 170.5,199.5 Z"/></g>
<g><path style="opacity:1" fill="#fcd9fb" d="M 138.5,194.5 C 139.779,195.968 141.446,196.635 143.5,196.5C 143.5,197.5 143.5,198.5 143.5,199.5C 142.833,199.5 142.167,199.5 141.5,199.5C 131.708,197.842 121.708,196.842 111.5,196.5C 120.895,197.138 129.895,196.471 138.5,194.5 Z"/></g>
<g><path style="opacity:1" fill="#e783bc" d="M 111.5,195.5 C 111.5,195.833 111.5,196.167 111.5,196.5C 121.708,196.842 131.708,197.842 141.5,199.5C 130.167,199.5 118.833,199.5 107.5,199.5C 108.833,198.167 110.167,196.833 111.5,195.5 Z"/></g>
<g><path style="opacity:1" fill="#f5d24d" d="M 149.5,191.5 C 150.5,191.5 151.5,191.5 152.5,191.5C 158.274,191.569 162.607,194.236 165.5,199.5C 158.833,199.5 152.167,199.5 145.5,199.5C 147.284,197.052 148.618,194.385 149.5,191.5 Z"/></g>
<g><path style="opacity:1" fill="#e6e1e4" d="M 76.5,175.5 C 77.0476,177.394 78.0476,179.06 79.5,180.5C 78.3707,182.529 78.8707,182.863 81,181.5C 87.0362,187.369 92.8695,193.369 98.5,199.5C 89.1667,199.5 79.8333,199.5 70.5,199.5C 70.5,198.5 70.5,197.5 70.5,196.5C 72.1599,198.248 74.1599,198.748 76.5,198C 73.8333,196.667 73.8333,195.333 76.5,194C 75.267,192.302 74.6004,190.302 74.5,188C 74.6004,185.698 75.267,183.698 76.5,182C 75.3759,181.161 74.7092,179.994 74.5,178.5C 74.6399,176.97 75.3065,175.97 76.5,175.5 Z"/></g>
</svg>
