<?xml version="1.0" standalone="no"?>
<!DOCTYPE svg PUBLIC "-//W3C//DTD SVG 20010904//EN"
 "http://www.w3.org/TR/2001/REC-SVG-20010904/DTD/svg10.dtd">
<svg version="1.0" xmlns="http://www.w3.org/2000/svg"
 width="247.000000pt" height="52.000000pt" viewBox="0 0 247.000000 52.000000"
 preserveAspectRatio="xMidYMid meet">

<g transform="translate(0.000000,52.000000) scale(0.100000,-0.100000)"
fill="#000000" stroke="none">
<path d="M49 418 c-1 -7 -3 -35 -5 -63 -5 -58 2 -88 16 -65 7 12 15 11 48 -8
63 -35 71 -25 17 22 -47 41 -48 44 -28 54 28 16 35 38 17 57 -19 18 -64 20
-65 3z"/>
<path d="M141 407 c-26 -67 -8 -115 43 -115 32 0 34 2 40 46 3 26 7 56 8 66 6
42 -21 24 -37 -25 -17 -50 -37 -53 -27 -4 2 13 -1 31 -6 42 -10 16 -12 16 -21
-10z"/>
<path d="M255 383 c-4 -26 -9 -55 -11 -65 -3 -9 0 -19 5 -23 6 -3 13 6 17 21
l7 26 22 -29 c30 -36 43 -24 18 17 -17 30 -17 32 0 41 26 15 21 30 -9 23 -21
-5 -25 -3 -22 11 2 10 -2 20 -9 22 -7 3 -14 -13 -18 -44z"/>
<path d="M356 418 c-3 -7 -7 -39 -9 -70 l-6 -58 37 0 37 0 -24 19 c-26 20 -21
41 10 41 10 0 19 5 19 10 0 6 -9 10 -20 10 -12 0 -20 7 -20 16 0 9 9 18 20 21
11 3 20 9 20 14 0 14 -60 11 -64 -3z"/>
<path d="M433 409 c3 -13 9 -43 13 -67 7 -46 21 -63 30 -38 8 20 24 21 24 1 0
-47 42 12 54 75 l7 35 -21 -37 c-11 -21 -22 -38 -25 -38 -2 0 -8 14 -13 31 -7
30 -9 31 -24 15 -15 -15 -17 -14 -20 11 -2 14 -9 29 -17 31 -10 3 -12 -2 -8
-19z"/>
<path d="M576 384 c-11 -86 -9 -94 24 -94 34 0 40 15 11 25 -27 8 -15 35 15
35 30 0 32 18 2 22 -13 2 -23 10 -23 18 0 8 10 16 23 18 35 5 26 22 -12 22
-32 0 -34 -2 -40 -46z"/>
<path d="M711 388 c-28 -66 -33 -86 -22 -92 6 -4 15 3 21 14 14 27 30 25 30
-2 1 -22 1 -23 15 -4 17 23 19 63 5 100 -14 37 -28 32 -49 -16z"/>
<path d="M800 415 c0 -7 8 -18 17 -24 17 -9 16 -11 -3 -33 -12 -13 -26 -33
-32 -44 -11 -20 -8 -22 36 -27 26 -3 49 -4 51 -2 8 8 -12 25 -30 25 -26 0 -24
22 6 50 32 30 31 36 -5 55 -36 19 -40 19 -40 0z"/>
<path d="M886 414 c-12 -31 -6 -101 9 -114 9 -7 18 -10 22 -7 3 4 12 2 19 -4
14 -12 28 4 30 36 1 11 5 40 9 64 10 58 -13 53 -33 -7 -17 -53 -32 -54 -32 -3
0 42 -14 62 -24 35z"/>
<path d="M997 423 c-2 -5 -4 -34 -6 -66 -3 -65 14 -71 25 -10 6 34 7 35 18 14
9 -17 14 -19 24 -9 9 9 12 4 12 -27 0 -56 18 -32 30 40 5 32 7 61 5 64 -3 2
-17 -6 -31 -20 l-26 -24 -15 23 c-16 22 -29 28 -36 15z"/>
<path d="M1121 412 c-15 -28 -14 -97 2 -110 7 -6 26 -10 42 -9 31 3 32 4 47
111 6 42 -21 24 -37 -24 -18 -54 -41 -59 -32 -5 7 42 -7 65 -22 37z"/>
<path d="M1237 423 c-6 -10 -10 -65 -7 -113 1 -29 3 -32 12 -19 11 16 15 15
50 -7 49 -31 56 -30 54 7 0 18 5 34 12 36 7 3 12 -4 12 -19 1 -22 1 -22 15 -4
24 32 16 126 -10 126 -12 0 -55 -86 -55 -109 0 -16 -26 -13 -40 4 -11 13 -9
20 11 41 18 20 21 29 13 42 -12 18 -59 29 -67 15z"/>
<path d="M1488 424 c-5 -4 -8 -18 -8 -31 0 -12 -4 -23 -10 -23 -5 0 -10 9 -10
20 0 20 -24 28 -34 12 -11 -18 -18 -112 -8 -112 5 0 13 12 17 28 7 27 7 27 18
5 12 -27 20 -28 36 -9 13 15 11 123 -1 110z"/>
<path d="M1531 385 c-11 -24 -21 -54 -23 -66 -4 -28 18 -36 25 -9 7 27 27 26
27 -2 1 -22 1 -23 15 -4 17 23 19 63 5 100 -14 37 -26 32 -49 -19z"/>
<path d="M1860 385 l0 -45 -70 0 c-40 0 -70 -4 -70 -10 0 -6 30 -10 70 -10
l70 0 0 -30 0 -30 -105 0 c-63 0 -105 -4 -105 -10 0 -6 42 -10 105 -10 l105 0
0 -30 0 -30 -70 0 c-40 0 -70 -4 -70 -10 0 -6 30 -10 70 -10 l70 0 0 -55 0
-55 50 0 c28 0 50 5 50 10 0 6 -16 10 -35 10 l-35 0 0 170 0 170 35 0 c19 0
35 5 35 10 0 6 -22 10 -50 10 l-50 0 0 -45z"/>
<path d="M2160 420 c0 -5 18 -10 40 -10 l40 0 0 -170 0 -170 -40 0 c-22 0 -40
-4 -40 -10 0 -5 23 -10 50 -10 l50 0 0 55 0 55 70 0 c40 0 70 4 70 10 0 6 -30
10 -70 10 l-70 0 0 30 0 30 105 0 c63 0 105 4 105 10 0 6 -42 10 -105 10
l-105 0 0 30 0 30 70 0 c40 0 70 4 70 10 0 6 -30 10 -70 10 l-70 0 0 45 0 45
-50 0 c-27 0 -50 -4 -50 -10z"/>
<path d="M2011 312 c-13 -25 -15 -192 -1 -192 5 0 13 7 18 15 7 14 17 11 67
-20 59 -35 85 -43 85 -26 0 5 -14 20 -30 33 -17 13 -46 36 -66 52 l-35 29 23
15 c69 48 62 96 -15 109 -29 4 -37 1 -46 -15z m49 -31 c0 -6 -4 -13 -10 -16
-5 -3 -10 1 -10 9 0 9 5 16 10 16 6 0 10 -4 10 -9z"/>
<path d="M1017 193 c-4 -3 -7 -25 -7 -47 0 -36 3 -41 23 -42 12 0 31 -4 41 -9
14 -6 17 -5 12 3 -5 8 -2 10 8 6 9 -3 16 -2 16 4 0 6 -6 12 -12 15 -9 3 -7 10
7 21 18 14 18 15 3 16 -22 0 -24 20 -3 20 8 0 15 5 15 11 0 6 -10 9 -22 7 -19
-2 -24 -10 -26 -40 -3 -37 -14 -48 -27 -28 -3 5 0 19 7 30 11 17 11 22 -2 30
-18 12 -24 12 -33 3z"/>
<path d="M1261 186 c-10 -12 -17 -14 -25 -6 -17 17 -24 11 -28 -25 -2 -19 0
-35 4 -35 4 0 8 10 8 21 0 17 3 19 13 10 8 -6 17 -8 20 -4 4 3 7 -5 8 -18 l0
-24 10 25 c5 13 9 35 7 49 -3 22 -4 23 -17 7z"/>
<path d="M1367 193 c-4 -3 -7 -27 -7 -52 0 -27 4 -41 8 -34 6 10 12 10 28 -2
27 -21 43 -19 37 5 -3 11 0 20 6 20 6 0 11 -6 11 -12 0 -7 5 -5 11 5 12 21 4
67 -12 67 -5 0 -17 -16 -25 -36 -10 -25 -19 -33 -26 -26 -6 6 -5 17 4 31 11
18 11 23 -2 31 -18 12 -24 12 -33 3z"/>
<path d="M1134 154 c-15 -37 -11 -61 7 -34 7 12 11 13 18 2 11 -18 22 19 14
48 -8 30 -22 24 -39 -16z"/>
<path d="M1290 152 c0 -31 4 -41 20 -45 23 -6 25 -4 34 46 8 41 -8 52 -18 12
-4 -14 -10 -25 -15 -25 -5 0 -7 8 -4 19 3 10 0 22 -6 25 -7 5 -11 -6 -11 -32z"/>
<path d="M1519 168 c-1 -18 -2 -19 -6 -5 -8 29 -28 13 -31 -24 -2 -23 0 -30 6
-20 8 10 11 11 17 1 6 -10 11 -9 22 5 13 18 13 18 13 -1 0 -16 2 -17 10 -4 9
13 11 13 19 0 9 -12 11 -12 16 2 9 23 2 61 -11 65 -6 2 -16 -7 -22 -19 l-11
-23 0 23 c-1 12 -5 22 -11 22 -5 0 -11 -10 -11 -22z"/>
</g>
</svg>
